HIERARCHY
ROOT hip
{
  OFFSET 0 0 0
  CHANNELS 6 Xposition Yposition Zposition Zrotation Yrotation Xrotation
  JOINT abdomen
  {
    OFFSET 0 20.6881 -0.73152
    CHANNELS 3 Zrotation Xrotation Yrotation
    JOINT chest
    {
      OFFSET 0 11.7043 -0.48768
      CHANNELS 3 Zrotation Xrotation Yrotation
      JOINT neck
      {
        OFFSET 0 22.1894 -2.19456
        CHANNELS 3 Zrotation Xrotation Yrotation
        JOINT head
        {
          OFFSET -0.24384 7.07133 1.2192
          CHANNELS 3 Zrotation Xrotation Yrotation
          JOINT leftEye
          {
            OFFSET 4.14528 8.04674 8.04672
            CHANNELS 3 Zrotation Xrotation Yrotation
            End Site
            {
              OFFSET 1 0 0
            }
          }
          JOINT rightEye
          {
            OFFSET -3.6576 8.04674 8.04672
            CHANNELS 3 Zrotation Xrotation Yrotation
            End Site
            {
              OFFSET 1 0 0
            }
          }
        }
      }
      JOINT rCollar
      {
        OFFSET -2.68224 19.2634 -4.8768
        CHANNELS 3 Zrotation Xrotation Yrotation
        JOINT rShldr
        {
          OFFSET -8.77824 -1.95073 1.46304
          CHANNELS 3 Zrotation Xrotation Yrotation
          JOINT rForeArm
          {
            OFFSET -28.1742 -1.7115 0.48768
            CHANNELS 3 Zrotation Xrotation Yrotation
            JOINT rHand
            {
              OFFSET -22.5879 0.773209 7.07136
              CHANNELS 3 Zrotation Xrotation Yrotation
              JOINT rThumb1
              {
                OFFSET -1.2192 -0.487915 3.41376
                CHANNELS 3 Zrotation Xrotation Yrotation
                JOINT rThumb2
                {
                  OFFSET -3.37035 -0.52449 3.41376
                  CHANNELS 3 Zrotation Xrotation Yrotation
                  End Site
                  {
                    OFFSET -1.78271 -1.18214 1.43049
                  }
                }
              }
              JOINT rIndex1
              {
                OFFSET -7.75947 0.938293 5.60832
                CHANNELS 3 Zrotation Xrotation Yrotation
                JOINT rIndex2
                {
                  OFFSET -2.54057 -0.884171 1.56538
                  CHANNELS 3 Zrotation Xrotation Yrotation
                  End Site
                  {
                    OFFSET -1.62519 -0.234802 1.16502
                  }
                }
              }
              JOINT rMid1
              {
                OFFSET -8.24714 1.18213 3.41376
                CHANNELS 3 Zrotation Xrotation Yrotation
                JOINT rMid2
                {
                  OFFSET -3.10165 -0.590103 1.0647
                  CHANNELS 3 Zrotation Xrotation Yrotation
                  End Site
                  {
                    OFFSET -2.48547 -0.328903 0.83742
                  }
                }
              }
              JOINT rRing1
              {
                OFFSET -8.82822 0.546677 1.51678
                CHANNELS 3 Zrotation Xrotation Yrotation
                JOINT rRing2
                {
                  OFFSET -2.60934 -0.819778 -0.0198488
                  CHANNELS 3 Zrotation Xrotation Yrotation
                  End Site
                  {
                    OFFSET -2.33842 -0.294052 0.168128
                  }
                }
              }
              JOINT rPinky1
              {
                OFFSET -8.27202 -0.0477905 -0.4584
                CHANNELS 3 Zrotation Xrotation Yrotation
                JOINT rPinky2
                {
                  OFFSET -1.82734 -0.647385 -0.700984
                  CHANNELS 3 Zrotation Xrotation Yrotation
                  End Site
                  {
                    OFFSET -1.69225 -0.51767 -0.607171
                  }
                }
              }
            }
          }
        }
      }
      JOINT lCollar
      {
        OFFSET 2.68224 19.2634 -4.8768
        CHANNELS 3 Zrotation Xrotation Yrotation
        JOINT lShldr
        {
          OFFSET 8.77824 -1.95073 1.46304
          CHANNELS 3 Zrotation Xrotation Yrotation
          JOINT lForeArm
          {
            OFFSET 28.1742 -1.7115 0.48768
            CHANNELS 3 Zrotation Xrotation Yrotation
            JOINT lHand
            {
              OFFSET 22.5879 0.773209 7.07136
              CHANNELS 3 Zrotation Xrotation Yrotation
              JOINT lThumb1
              {
                OFFSET 1.2192 -0.487915 3.41376
                CHANNELS 3 Zrotation Xrotation Yrotation
                JOINT lThumb2
                {
                  OFFSET 3.37035 -0.52449 3.41376
                  CHANNELS 3 Zrotation Xrotation Yrotation
                  End Site
                  {
                    OFFSET 1.78271 -1.18214 1.43049
                  }
                }
              }
              JOINT lIndex1
              {
                OFFSET 7.75947 0.938293 5.60832
                CHANNELS 3 Zrotation Xrotation Yrotation
                JOINT lIndex2
                {
                  OFFSET 2.54057 -0.884171 1.56538
                  CHANNELS 3 Zrotation Xrotation Yrotation
                  End Site
                  {
                    OFFSET 1.62519 -0.234802 1.16502
                  }
                }
              }
              JOINT lMid1
              {
                OFFSET 8.24714 1.18213 3.41376
                CHANNELS 3 Zrotation Xrotation Yrotation
                JOINT lMid2
                {
                  OFFSET 3.10165 -0.590103 1.0647
                  CHANNELS 3 Zrotation Xrotation Yrotation
                  End Site
                  {
                    OFFSET 2.48547 -0.328903 0.83742
                  }
                }
              }
              JOINT lRing1
              {
                OFFSET 8.82822 0.546677 1.51678
                CHANNELS 3 Zrotation Xrotation Yrotation
                JOINT lRing2
                {
                  OFFSET 2.60934 -0.819778 -0.0198488
                  CHANNELS 3 Zrotation Xrotation Yrotation
                  End Site
                  {
                    OFFSET 2.33842 -0.294052 0.168128
                  }
                }
              }
              JOINT lPinky1
              {
                OFFSET 8.27202 -0.0477905 -0.4584
                CHANNELS 3 Zrotation Xrotation Yrotation
                JOINT lPinky2
                {
                  OFFSET 1.82734 -0.647385 -0.700984
                  CHANNELS 3 Zrotation Xrotation Yrotation
                  End Site
                  {
                    OFFSET 1.69225 -0.51767 -0.607171
                  }
                }
              }
            }
          }
        }
      }
    }
  }
  JOINT rButtock
  {
    OFFSET -8.77824 4.35084 1.2192
    CHANNELS 3 Zrotation Xrotation Yrotation
    JOINT rThigh
    {
      OFFSET 0 -1.70687 -2.19456
      CHANNELS 3 Zrotation Xrotation Yrotation
      JOINT rShin
      {
        OFFSET 0 -36.8199 0.73152
        CHANNELS 3 Zrotation Xrotation Yrotation
        JOINT rFoot
        {
          OFFSET 0.73152 -45.1104 -5.12064
          CHANNELS 3 Zrotation Xrotation Yrotation
          End Site
          {
            OFFSET -1.1221 -3.69964 12.103
          }
        }
      }
    }
  }
  JOINT lButtock
  {
    OFFSET 8.77824 4.35084 1.2192
    CHANNELS 3 Zrotation Xrotation Yrotation
    JOINT lThigh
    {
      OFFSET 0 -1.70687 -2.19456
      CHANNELS 3 Zrotation Xrotation Yrotation
      JOINT lShin
      {
        OFFSET 0 -36.8199 0.73152
        CHANNELS 3 Zrotation Xrotation Yrotation
        JOINT lFoot
        {
          OFFSET -0.73152 -45.1104 -5.12064
          CHANNELS 3 Zrotation Xrotation Yrotation
          End Site
          {
            OFFSET 1.1221 -3.69964 12.103
          }
        }
      }
    }
  }
}
MOTION
Frames:	5
Frame Time:	0.03333
26.431700000000003 69.0028 1.0775 -6.080885 -23.814647 10.541749 1.332802 -12.365912 171.31131 -15.595817 0.092791 167.529973 -24.559072 6.945541 -68.217349 30.854773 11.897711 44.97352 21.376044 -13.146009 -62.809682 -13.955266 1.761346 -14.317619 -21.979969 28.018748 30.147096 -5.93277 74.691435 32.690502 -160.267801 -48.589968 -80.11564 -0.702166 5.848318 2.414545 -176.0325 -29.232873 100.022327 -67.262536 -12.160789 66.636982 -179.938154 -73.708272 115.46824 27.740207 15.219802 9.049887 -152.390669 -24.561556 170.961398 -155.89559 48.397304 -176.698674 13.513206 -1.009319 -21.798302 96.654012 -33.781434 76.438009 -68.311825 8.54032 -45.523419 -56.717372 39.000628 165.220864 18.725109 -61.405628 46.29131 169.944278 -5.360804 -136.820212 -39.542811 0.093661 161.814953 175.542903 5.629166 -150.426942 96.018262 44.284355 -39.991468 -38.414296 -33.594163 -55.659871 -16.632862 4.192042 -12.230394 -96.645854 74.676699 132.174452 -26.751005 48.255807 -8.425079 -151.559243 -3.22112 -178.393378 159.366269 6.237642 167.265762 51.309459 -43.674478 53.775489 42.643447 -56.614175 67.750085 12.093512 -13.211 -45.199247 36.527229 64.080545 75.722008 -98.511945 12.402975 -0.0 51.310656 3.846267 -172.819838 153.966019 -3.606279 -63.37911 2.241447 9.687441 -3.220701 22.734714 -27.363474 -137.646403 170.658994 -83.894797 -99.464818 168.040782 0.247099 -96.256198
27.4633 70.4378 2.1014 -4.163696 -24.096876 8.198714 -0.152942 -2.965206 14.024051 11.917186 -12.683081 -29.01063 -21.990227 4.234215 -46.109397 28.967381 0.812706 28.588593 22.697833 -14.438971 -64.515423 -9.508465 2.983696 -34.775254 86.734101 -77.839003 68.463386 -37.089495 -72.692422 -36.172015 -6.537346 -27.200964 -142.998515 161.764914 -32.188072 140.920457 -176.650454 -23.390117 99.028454 81.573757 -51.0594 37.242226 -84.18868 37.980959 78.025382 -60.909274 80.180782 43.927452 -133.873326 59.903081 128.720407 -91.669595 -87.338191 -86.741473 -124.698113 10.923983 -164.769352 -61.072996 -28.50712 -95.535805 179.701556 4.906116 -81.961877 177.953332 2.128792 -70.577659 70.587921 80.234394 -78.222711 -15.691945 62.824121 10.302959 -14.117018 1.579837 155.315205 -168.954573 -35.107317 -148.544985 -0.92862 -16.639035 -2.089282 1.764091 21.609867 -6.527817 -174.68055 -61.459898 -93.314173 -150.710205 11.942744 -72.760679 -47.831789 -81.903102 21.283245 -10.870233 -2.380917 -56.172375 14.60278 3.365446 16.431335 168.795528 -51.576126 -134.340659 118.926458 72.001041 -176.867506 -97.615944 58.994233 47.159127 -91.261884 11.583273 -45.453481 100.620034 15.639256 51.83929 47.615501 26.421035 -163.885102 39.405977 49.574828 50.452186 -177.732672 66.281625 -0.0 -152.876414 44.892005 -19.487898 -97.104517 61.882219 -20.872586 54.625131 -35.242539 135.927851
28.8474 71.9564 2.5819 -2.942763 -23.319527 7.358055 -0.411805 -4.490003 155.776539 -14.338615 2.391428 -166.172011 -14.327207 1.767242 -8.650249 16.699972 -12.561167 -3.09925 20.067962 -11.512938 -59.343684 -5.949463 2.97648 -53.126142 -159.242889 -7.959026 151.064425 51.952163 -64.626525 63.485575 -140.606416 -10.277184 -44.248616 10.083482 -18.580858 1.895201 -89.707911 45.046805 52.900413 -22.252655 4.112211 14.335267 -6.58424 13.304944 18.95483 -146.679571 62.56337 102.009774 89.631612 -80.698923 63.12268 28.143914 0.959692 -17.880421 27.523228 6.066149 -5.678253 112.532709 -59.335793 117.999205 -125.620467 1.931626 -69.607449 -110.404596 38.925416 -102.587096 76.711656 75.149307 -81.768919 -13.40893 0.485401 -3.904109 10.646813 81.513135 143.982141 -157.379781 -50.842077 -139.370619 -5.378751 -14.482865 -12.162427 21.16277 -69.980632 77.037345 -5.840317 12.484112 -14.875154 -89.01894 43.530455 123.823774 -40.220399 -21.028174 10.119657 177.461707 38.777354 -109.391648 13.287936 5.434337 19.090809 -153.266471 -58.196307 -105.332933 2.79845 -19.437504 -8.628611 157.32442 52.873244 152.36358 -0.038978 0.067161 30.129614 -14.654331 -31.730804 -180.0 -38.727618 -34.235454 76.956102 -68.73289 -40.093372 23.330229 -10.717706 7.423322 -2.772994 35.624578 -23.079683 -44.088097 -87.956613 4.367003 -14.989326 155.980351 82.223289 -71.556061
30.2864 73.03960000000001 2.7095000000000002 -2.568505 -21.715004 6.943921 -1.105341 -0.178242 76.301177 -10.012742 -13.192724 -82.499664 1.244198 15.077237 121.360213 -23.47901 12.699053 -127.300425 18.29712 -8.300823 -48.512143 -6.997722 4.428218 -64.613319 -138.521182 34.160118 138.63239 -176.886563 -16.60812 136.757562 177.628915 10.270094 16.149959 165.950818 -12.960706 139.617237 -4.176473 6.83884 -0.873396 27.129709 -61.792641 -6.857351 -165.129857 -29.202117 96.821218 140.890765 -46.978335 49.437638 -170.373235 -7.317461 129.895184 -158.940709 -75.013761 -161.610915 -118.301788 2.323062 175.401567 -104.768483 -30.298862 -156.272361 -132.471334 5.019589 -76.893281 -121.590831 28.008804 -95.040262 144.267311 40.266096 -149.237576 80.628756 64.657983 -96.157673 5.844045 -44.137718 167.862099 -150.50755 -58.540846 -131.154822 165.420699 1.404156 -67.986212 -30.980848 -26.765708 -43.777868 107.199063 10.120534 -100.776055 -83.219985 77.595852 -3.158526 133.025124 -36.124196 -148.507959 -104.290084 -51.206699 -46.073359 -12.800245 73.820605 12.80609 -135.096041 -55.853542 -142.453842 151.574739 -37.781875 150.093404 19.463485 16.924696 5.624391 18.324562 4.156838 36.180862 -35.387605 -22.441797 -180.0 -54.591397 -27.845387 -90.927072 -25.963175 20.924576 -167.924717 -4.374641 3.275115 5.885761 23.243539 -25.086482 10.75622 -61.144319 68.822561 -31.360364 133.064883 -58.24868 -136.320043
31.666100000000004 74.1623 2.7321999999999997 -2.565692 -19.758243 7.019971 4.106512 -1.921199 -115.030375 8.377457 7.826661 114.121378 -15.722946 14.95789 -104.189184 22.077428 24.924586 94.1955 19.26162 -3.361698 -19.622376 -15.931261 10.238154 -65.255078 -155.768534 -7.036052 155.785192 51.981562 -58.287862 71.92917 11.892939 11.445874 -171.664134 169.780176 -1.197003 139.17709 -171.197777 -10.033066 86.679577 -8.699078 -27.030475 8.921789 92.401768 -44.750213 53.39748 9.911941 -38.188497 17.142877 -29.105989 13.407543 31.248887 34.518957 -6.785362 22.104314 -45.860488 -84.724029 -81.852975 -139.58128 5.268421 137.561153 -166.745261 23.167133 -87.100145 -11.908631 15.675777 -50.07971 84.253493 66.309488 -85.664357 -57.095087 -52.720726 -33.065412 -123.647627 65.502116 -66.253787 178.135262 0.153944 -144.419406 164.534783 2.526455 -66.096966 79.893312 -19.096747 -58.387072 -8.155493 13.537623 -21.515262 -166.400489 -15.15869 158.728295 -42.552763 -21.086222 4.539585 148.187147 65.28063 -102.987533 87.379416 -54.813339 94.683157 -59.592236 38.310184 15.568119 39.642013 37.95546 -56.820312 -55.480222 -1.8151 -22.57366 71.111302 49.438133 66.860958 -106.100384 29.255469 -180.0 -48.045262 -30.510646 12.198813 29.121559 -70.775788 119.871698 88.017918 67.381368 53.583592 -103.24477 24.065906 -57.798664 -56.518097 57.324564 -28.106015 133.943563 62.735824 -60.625567
